<svg width="24" height="24" viewBox="0 0 24 24" fill="none" xmlns="http://www.w3.org/2000/svg">
<g clip-path="url(#clip0_515_93)">
<path d="M18.8521 1.35886C18.0724 0.482577 16.9916 0 15.8087 0C14.4884 0 13.344 0.62428 12.4991 1.80529C12.4372 1.89185 12.3778 1.98014 12.3209 2.07004C12.264 1.98012 12.2046 1.89183 12.1428 1.80529C11.2978 0.62428 10.1534 0 8.83307 0C7.65023 0 6.56939 0.482577 5.78972 1.35881C5.04985 2.19037 4.64232 3.30206 4.64232 4.48907C4.64232 5.77902 5.14289 6.96931 6.2175 8.23512C7.15514 9.3395 8.50008 10.4747 10.0574 11.7891C10.6329 12.2749 11.2281 12.7772 11.8604 13.3253C11.9882 13.4362 12.1517 13.4971 12.3208 13.497C12.49 13.4971 12.6535 13.4361 12.7813 13.3253C13.4135 12.7773 14.0086 12.275 14.5841 11.7894C15.5842 10.9452 16.448 10.2161 17.1976 9.50895C18.6529 8.13589 19.9995 6.57744 19.9995 4.48912C19.9995 3.30206 19.592 2.19042 18.8521 1.35886ZM16.2327 8.48628C15.5115 9.16676 14.6615 9.88418 13.6773 10.7149C13.2394 11.0844 12.7903 11.4634 12.3209 11.866C11.8513 11.4635 11.4021 11.0844 10.9643 10.7148C7.89872 8.12731 6.04828 6.56553 6.04828 4.48912C6.04819 2.73145 7.24537 1.40601 8.83303 1.40601C9.68123 1.40601 10.4026 1.80529 10.977 2.59274C11.4485 3.23896 11.6421 3.9089 11.6434 3.9134C11.6844 4.06154 11.7729 4.19213 11.8953 4.28519C12.0176 4.37825 12.1671 4.42863 12.3208 4.42863C12.4746 4.42863 12.6241 4.37825 12.7464 4.28519C12.8688 4.19213 12.9573 4.06154 12.9983 3.9134C13.0053 3.88832 13.7169 1.40601 15.8087 1.40601C17.3963 1.40601 18.5936 2.73149 18.5936 4.48912C18.5936 5.76266 17.9316 6.88335 16.2327 8.48628ZM21.8884 14.1584C21.3053 14.1584 20.7427 14.4033 20.3451 14.8301L18.279 17.0481C18.0119 16.1896 17.21 15.5644 16.2647 15.5644H13.0172C12.5628 15.5645 12.1239 15.3989 11.7828 15.0986C9.94706 13.4831 7.18772 13.4689 5.33452 15.0539C4.95235 14.5128 4.32263 14.1585 3.61126 14.1585H0.705669C0.317451 14.1585 0.00268555 14.4732 0.00268555 14.8615V23.2971C0.00268555 23.6853 0.317404 24 0.705669 24H3.61126C4.24257 24 4.80957 23.7208 5.19638 23.2798L5.61267 23.3968C7.03657 23.7971 8.50866 24 9.98774 24H16.2647C17.8053 24 19.2769 23.2642 20.2013 22.0317L23.5762 17.5318L23.5764 17.5315C23.8518 17.1643 23.9973 16.7272 23.9973 16.2673C23.9973 15.1045 23.0513 14.1584 21.8884 14.1584ZM4.31424 21.8911C4.31424 22.2787 3.99891 22.594 3.61126 22.594H1.4086V15.5643H3.61126C3.99887 15.5643 4.31424 15.8797 4.31424 16.2673V21.8911ZM22.4515 16.6881L22.4515 16.6882L19.0766 21.1882C18.4163 22.0685 17.3651 22.5941 16.2647 22.5941H9.98788C8.63742 22.5941 7.29334 22.4088 5.99325 22.0433L5.71833 21.966C5.71922 21.9411 5.72025 21.9162 5.72025 21.8911V16.5851L6.21014 16.154C7.53389 14.9891 9.53034 14.989 10.8542 16.154C11.4519 16.6802 12.221 16.9704 13.0173 16.9702H16.2648C16.6524 16.9702 16.9678 17.2856 16.9678 17.6732C16.9678 18.0608 16.6525 18.3762 16.2648 18.3762H11.2686C10.8804 18.3762 10.5657 18.6909 10.5657 19.0792C10.5657 19.4674 10.8804 19.7821 11.2686 19.7821H16.7359C17.319 19.7821 17.8815 19.5374 18.279 19.1107L21.3738 15.7884C21.5084 15.6439 21.6912 15.5643 21.8884 15.5643C22.276 15.5643 22.5914 15.8797 22.5914 16.2673C22.5914 16.4206 22.543 16.5661 22.4515 16.6881Z" fill="#8B0000"/>
</g>
<defs>
<clipPath id="clip0_515_93">
<rect width="24" height="24" fill="white"/>
</clipPath>
</defs>
</svg>
